<svg xmlns="http://www.w3.org/2000/svg" width="128" height="128" viewBox="0 0 128 128" version="1.1"><path d="M 61.506 40.988 C 60.418 43.399, 55.785 51.701, 51.211 59.436 C 42.728 73.779, 36.716 85.517, 35.555 90 C 34.982 92.217, 35.301 92.067, 38.377 88.673 C 40.285 86.568, 43.689 80.493, 45.942 75.173 C 51.057 63.094, 57.203 51.698, 58.509 51.870 C 59.054 51.941, 59.491 52.337, 59.481 52.750 C 59.470 53.163, 59.114 59.889, 58.689 67.698 C 57.957 81.162, 58.496 92, 59.898 92 C 60.250 92, 62.549 87.612, 65.008 82.250 C 70.685 69.866, 79.843 54.601, 87.342 45.023 C 93.094 37.675, 93.556 35.279, 88.593 38.531 C 85.162 40.779, 81.111 47.108, 73.411 62.250 C 69.845 69.263, 66.494 75, 65.964 75 C 65.390 75, 64.977 68.827, 64.942 59.750 C 64.911 51.362, 64.569 42.723, 64.184 40.551 L 63.483 36.603 61.506 40.988" stroke="none" fill="#ffffff" fill-rule="evenodd"/><path d="M 49.160 14.843 C 46.063 15.804, 44.172 16.882, 44.660 17.410 C 45.150 17.941, 44.977 18.020, 44.246 17.599 C 42.657 16.684, 34.870 20.980, 35.695 22.316 C 36.033 22.862, 35.836 23.017, 35.259 22.660 C 34.681 22.303, 33.149 22.943, 31.854 24.082 C 30.559 25.221, 30.132 25.824, 30.905 25.422 C 31.836 24.937, 32.066 25.085, 31.585 25.862 C 31.187 26.506, 30.503 26.811, 30.065 26.540 C 29.200 26.005, 26.029 29.077, 26.321 30.167 C 26.420 30.533, 26.090 31.208, 25.590 31.667 C 25.054 32.157, 24.983 31.882, 25.416 31 C 25.821 30.175, 25.221 30.559, 24.082 31.854 C 22.943 33.149, 22.303 34.681, 22.660 35.259 C 23.017 35.836, 22.862 36.033, 22.316 35.695 C 21.007 34.886, 16.668 42.654, 17.593 44.150 C 18.006 44.819, 17.874 45.040, 17.281 44.674 C 15.505 43.576, 13.112 54.959, 13.112 64.500 C 13.112 74.041, 15.505 85.424, 17.281 84.326 C 17.874 83.960, 18.006 84.181, 17.593 84.850 C 16.668 86.346, 21.007 94.114, 22.316 93.305 C 22.862 92.967, 23.017 93.164, 22.660 93.741 C 22.303 94.319, 22.943 95.851, 24.082 97.146 C 25.221 98.441, 25.824 98.868, 25.422 98.095 C 24.937 97.164, 25.085 96.934, 25.862 97.415 C 26.506 97.813, 26.811 98.497, 26.540 98.935 C 25.936 99.912, 29.436 103.231, 30.231 102.436 C 30.544 102.123, 31.139 102.416, 31.554 103.088 C 32.068 103.918, 31.860 104.075, 30.905 103.578 C 30.132 103.176, 30.559 103.779, 31.854 104.918 C 33.149 106.057, 34.681 106.697, 35.259 106.340 C 35.836 105.983, 36.033 106.138, 35.695 106.684 C 34.886 107.993, 42.654 112.332, 44.150 111.407 C 44.819 110.994, 45.040 111.126, 44.674 111.719 C 43.576 113.495, 54.959 115.888, 64.500 115.888 C 74.041 115.888, 85.424 113.495, 84.326 111.719 C 83.976 111.153, 84.176 110.991, 84.771 111.358 C 86.250 112.272, 91.088 109.952, 90.314 108.699 C 89.971 108.145, 90.135 107.966, 90.678 108.301 C 91.609 108.876, 99 104.528, 99 103.405 C 99 103.117, 98.480 103.203, 97.845 103.595 C 97.108 104.051, 96.963 103.868, 97.446 103.088 C 97.861 102.416, 98.456 102.123, 98.769 102.436 C 99.564 103.231, 103.064 99.912, 102.460 98.935 C 102.189 98.497, 102.494 97.813, 103.138 97.415 C 103.915 96.934, 104.063 97.164, 103.578 98.095 C 103.176 98.868, 103.779 98.441, 104.918 97.146 C 106.057 95.851, 106.697 94.319, 106.340 93.741 C 105.983 93.164, 106.138 92.967, 106.684 93.305 C 107.993 94.114, 112.332 86.346, 111.407 84.850 C 110.994 84.181, 111.126 83.960, 111.719 84.326 C 113.495 85.424, 115.888 74.041, 115.888 64.500 C 115.888 54.959, 113.495 43.576, 111.719 44.674 C 111.126 45.040, 110.994 44.819, 111.407 44.150 C 112.332 42.654, 107.993 34.886, 106.684 35.695 C 106.138 36.033, 105.983 35.836, 106.340 35.259 C 106.697 34.681, 106.057 33.149, 104.918 31.854 C 103.779 30.559, 103.176 30.132, 103.578 30.905 C 104.063 31.836, 103.915 32.066, 103.138 31.585 C 102.494 31.187, 102.186 30.508, 102.453 30.076 C 103.160 28.931, 98.504 24.843, 97.515 25.741 C 97.056 26.158, 96.973 25.987, 97.331 25.359 C 98.006 24.179, 93.511 20.667, 91.325 20.667 C 90.645 20.667, 90.279 20.357, 90.513 19.980 C 91.146 18.955, 86.022 16.869, 84.771 17.642 C 84.176 18.009, 83.976 17.847, 84.326 17.281 C 84.701 16.675, 82.607 15.611, 79.231 14.691 C 71.580 12.605, 56.121 12.683, 49.160 14.843 M 62.227 37.250 C 61.667 37.938, 60.532 40.134, 59.705 42.131 C 58.878 44.128, 54.355 52.239, 49.654 60.155 C 37.673 80.329, 32 93, 34.948 93 C 37.555 93, 42.212 85.968, 47.479 74.078 C 50.543 67.160, 54.414 59.250, 56.081 56.500 L 59.113 51.500 58.602 55.500 C 57.581 63.494, 57.047 84.597, 57.768 88.418 C 58.174 90.573, 59.019 92.506, 59.644 92.715 C 60.272 92.924, 63.686 87.154, 67.286 79.797 C 74.316 65.429, 81.038 54.605, 89.581 43.899 C 92.561 40.163, 95 36.858, 95 36.553 C 95 36.249, 93.798 36, 92.329 36 C 87.759 36, 82.009 43.283, 73.663 59.639 L 66.081 74.500 66.034 63.500 C 65.977 49.818, 64.942 36, 63.974 36 C 63.573 36, 62.787 36.563, 62.227 37.250" stroke="none" fill="#c00100" fill-rule="evenodd"/><path d="M 91.756 36.664 C 92.447 36.943, 92.715 37.652, 92.352 38.240 C 91.961 38.872, 92.163 39.017, 92.845 38.595 C 94.590 37.517, 94.229 35.990, 92.250 36.079 C 91.194 36.127, 90.998 36.359, 91.756 36.664 M 64.232 40 C 64.232 41.925, 64.438 42.712, 64.689 41.750 C 64.941 40.788, 64.941 39.212, 64.689 38.250 C 64.438 37.288, 64.232 38.075, 64.232 40 M 88.405 38.155 C 87.962 38.870, 88.130 39.038, 88.845 38.595 C 89.480 38.203, 90 37.684, 90 37.441 C 90 36.607, 89.117 37.002, 88.405 38.155 M 61.459 39.067 C 61.096 39.653, 61.014 40.348, 61.276 40.610 C 61.538 40.872, 62.019 40.392, 62.345 39.543 C 63.021 37.781, 62.445 37.471, 61.459 39.067 M 89.872 41.750 C 88.629 43.336, 88.664 43.371, 90.250 42.128 C 91.916 40.821, 92.445 40, 91.622 40 C 91.415 40, 90.627 40.788, 89.872 41.750 M 82.872 43.750 C 81.629 45.336, 81.664 45.371, 83.250 44.128 C 84.916 42.821, 85.445 42, 84.622 42 C 84.415 42, 83.627 42.788, 82.872 43.750 M 85.872 46.750 C 84.629 48.336, 84.664 48.371, 86.250 47.128 C 87.916 45.821, 88.445 45, 87.622 45 C 87.415 45, 86.627 45.788, 85.872 46.750 M 79 50 C 78.411 51.100, 78.155 52, 78.430 52 C 78.705 52, 79.411 51.100, 80 50 C 80.589 48.900, 80.845 48, 80.570 48 C 80.295 48, 79.589 48.900, 79 50 M 82.872 50.750 C 81.629 52.336, 81.664 52.371, 83.250 51.128 C 84.916 49.821, 85.445 49, 84.622 49 C 84.415 49, 83.627 49.788, 82.872 50.750 M 55.405 51.155 C 54.962 51.870, 55.130 52.038, 55.845 51.595 C 56.998 50.883, 57.393 50, 56.559 50 C 56.316 50, 55.797 50.520, 55.405 51.155 M 57.415 52.138 C 56.983 52.836, 57.123 53.042, 57.760 52.648 C 58.348 52.285, 59.057 52.553, 59.336 53.244 C 59.698 54.143, 59.865 54.161, 59.921 53.309 C 60.035 51.588, 58.265 50.761, 57.415 52.138 M 80.405 54.155 C 79.962 54.870, 80.130 55.038, 80.845 54.595 C 81.480 54.203, 82 53.684, 82 53.441 C 82 52.607, 81.117 53.002, 80.405 54.155 M 55.405 55.155 C 54.962 55.870, 55.130 56.038, 55.845 55.595 C 56.998 54.883, 57.393 54, 56.559 54 C 56.316 54, 55.797 54.520, 55.405 55.155 M 52.405 56.155 C 51.962 56.870, 52.130 57.038, 52.845 56.595 C 53.998 55.883, 54.393 55, 53.559 55 C 53.316 55, 52.797 55.520, 52.405 56.155 M 78.405 57.155 C 77.962 57.870, 78.130 58.038, 78.845 57.595 C 79.480 57.203, 80 56.684, 80 56.441 C 80 55.607, 79.117 56.002, 78.405 57.155 M 49.405 61.155 C 48.962 61.870, 49.130 62.038, 49.845 61.595 C 50.998 60.883, 51.393 60, 50.559 60 C 50.316 60, 49.797 60.520, 49.405 61.155 M 75.405 62.155 C 74.962 62.870, 75.130 63.038, 75.845 62.595 C 76.480 62.203, 77 61.684, 77 61.441 C 77 60.607, 76.117 61.002, 75.405 62.155 M 58.272 67 C 58.272 69.475, 58.467 70.487, 58.706 69.250 C 58.944 68.013, 58.944 65.987, 58.706 64.750 C 58.467 63.513, 58.272 64.525, 58.272 67 M 46.405 66.155 C 45.962 66.870, 46.130 67.038, 46.845 66.595 C 47.480 66.203, 48 65.684, 48 65.441 C 48 64.607, 47.117 65.002, 46.405 66.155 M 72.405 67.155 C 71.962 67.870, 72.130 68.038, 72.845 67.595 C 73.998 66.883, 74.393 66, 73.559 66 C 73.316 66, 72.797 66.520, 72.405 67.155 M 47 72 C 47 72.733, 47.300 73.033, 47.667 72.667 C 48.033 72.300, 48.033 71.700, 47.667 71.333 C 47.300 70.967, 47 71.267, 47 72 M 42 74 C 41.411 75.100, 41.155 76, 41.430 76 C 41.705 76, 42.411 75.100, 43 74 C 43.589 72.900, 43.845 72, 43.570 72 C 43.295 72, 42.589 72.900, 42 74 M 66 74 C 65.099 74.582, 64.975 74.975, 65.691 74.985 C 66.346 74.993, 67.160 74.550, 67.500 74 C 68.267 72.758, 67.921 72.758, 66 74 M 45 77 C 45 77.733, 45.300 78.033, 45.667 77.667 C 46.033 77.300, 46.033 76.700, 45.667 76.333 C 45.300 75.967, 45 76.267, 45 77 M 36.624 84.539 C 35.659 87.053, 35.943 87.702, 37.122 85.675 C 37.706 84.671, 37.973 83.639, 37.715 83.382 C 37.458 83.124, 36.966 83.645, 36.624 84.539 M 40.405 86.155 C 39.962 86.870, 40.130 87.038, 40.845 86.595 C 41.998 85.883, 42.393 85, 41.559 85 C 41.316 85, 40.797 85.520, 40.405 86.155 M 63 86 C 63 86.733, 63.300 87.033, 63.667 86.667 C 64.033 86.300, 64.033 85.700, 63.667 85.333 C 63.300 84.967, 63 85.267, 63 86 M 58.195 88.500 C 58.215 90.150, 58.439 90.704, 58.693 89.731 C 58.947 88.758, 58.930 87.408, 58.656 86.731 C 58.382 86.054, 58.175 86.850, 58.195 88.500 M 35 89 C 35 89.733, 35.300 90.033, 35.667 89.667 C 36.033 89.300, 36.033 88.700, 35.667 88.333 C 35.300 87.967, 35 88.267, 35 89 M 36.924 90.750 L 34.500 93.500 37.250 91.076 C 39.820 88.810, 40.459 88, 39.674 88 C 39.495 88, 38.258 89.237, 36.924 90.750 M 59.333 92.667 C 59.700 93.033, 60.300 93.033, 60.667 92.667 C 61.033 92.300, 60.733 92, 60 92 C 59.267 92, 58.967 92.300, 59.333 92.667" stroke="none" fill="#f9f0f0" fill-rule="evenodd"/><path d="M 30.405 26.155 C 29.962 26.870, 30.130 27.038, 30.845 26.595 C 31.480 26.203, 32 25.684, 32 25.441 C 32 24.607, 31.117 25.002, 30.405 26.155 M 25.405 31.155 C 24.962 31.870, 25.130 32.038, 25.845 31.595 C 26.480 31.203, 27 30.684, 27 30.441 C 27 29.607, 26.117 30.002, 25.405 31.155 M 102.500 31 C 102.840 31.550, 103.343 32, 103.618 32 C 103.893 32, 103.840 31.550, 103.500 31 C 103.160 30.450, 102.657 30, 102.382 30 C 102.107 30, 102.160 30.450, 102.500 31 M 61.872 37.750 C 60.603 39.369, 60.650 39.390, 62.500 38.033 C 63.600 37.226, 64.688 36.439, 64.917 36.283 C 65.146 36.127, 64.863 36, 64.289 36 C 63.715 36, 62.627 36.788, 61.872 37.750 M 93.100 38.295 C 91.835 40.402, 91.857 40.423, 93.579 38.774 C 94.570 37.824, 95.166 36.832, 94.903 36.569 C 94.640 36.306, 93.829 37.083, 93.100 38.295 M 85.437 40.250 L 82.500 43.500 85.750 40.563 C 87.537 38.948, 89 37.485, 89 37.313 C 89 36.540, 88.175 37.221, 85.437 40.250 M 60 41 C 60 41.733, 60.300 42.033, 60.667 41.667 C 61.033 41.300, 61.033 40.700, 60.667 40.333 C 60.300 39.967, 60 40.267, 60 41 M 88.872 43.750 C 87.629 45.336, 87.664 45.371, 89.250 44.128 C 90.916 42.821, 91.445 42, 90.622 42 C 90.415 42, 89.627 42.788, 88.872 43.750 M 85.872 47.750 C 84.629 49.336, 84.664 49.371, 86.250 48.128 C 87.916 46.821, 88.445 46, 87.622 46 C 87.415 46, 86.627 46.788, 85.872 47.750 M 65.395 60.500 C 65.396 68.200, 65.553 71.218, 65.743 67.206 C 65.934 63.195, 65.932 56.895, 65.741 53.206 C 65.549 49.518, 65.393 52.800, 65.395 60.500 M 79.405 48.155 C 78.962 48.870, 79.130 49.038, 79.845 48.595 C 80.480 48.203, 81 47.684, 81 47.441 C 81 46.607, 80.117 47.002, 79.405 48.155 M 55.405 50.155 C 54.962 50.870, 55.130 51.038, 55.845 50.595 C 56.998 49.883, 57.393 49, 56.559 49 C 56.316 49, 55.797 49.520, 55.405 50.155 M 82.405 52.155 C 81.962 52.870, 82.130 53.038, 82.845 52.595 C 83.480 52.203, 84 51.684, 84 51.441 C 84 50.607, 83.117 51.002, 82.405 52.155 M 52.405 55.155 C 51.962 55.870, 52.130 56.038, 52.845 55.595 C 53.998 54.883, 54.393 54, 53.559 54 C 53.316 54, 52.797 54.520, 52.405 55.155 M 80.405 55.155 C 79.962 55.870, 80.130 56.038, 80.845 55.595 C 81.480 55.203, 82 54.684, 82 54.441 C 82 53.607, 81.117 54.002, 80.405 55.155 M 55.405 56.155 C 54.962 56.870, 55.130 57.038, 55.845 56.595 C 56.998 55.883, 57.393 55, 56.559 55 C 56.316 55, 55.797 55.520, 55.405 56.155 M 58.252 59.500 C 58.263 61.700, 58.468 62.482, 58.707 61.238 C 58.946 59.994, 58.937 58.194, 58.687 57.238 C 58.437 56.282, 58.241 57.300, 58.252 59.500 M 78.405 58.155 C 77.962 58.870, 78.130 59.038, 78.845 58.595 C 79.480 58.203, 80 57.684, 80 57.441 C 80 56.607, 79.117 57.002, 78.405 58.155 M 49.405 60.155 C 48.962 60.870, 49.130 61.038, 49.845 60.595 C 50.998 59.883, 51.393 59, 50.559 59 C 50.316 59, 49.797 59.520, 49.405 60.155 M 46.405 65.155 C 45.962 65.870, 46.130 66.038, 46.845 65.595 C 47.998 64.883, 48.393 64, 47.559 64 C 47.316 64, 46.797 64.520, 46.405 65.155 M 72.405 68.155 C 71.962 68.870, 72.130 69.038, 72.845 68.595 C 73.998 67.883, 74.393 67, 73.559 67 C 73.316 67, 72.797 67.520, 72.405 68.155 M 48 71 C 48 71.733, 48.300 72.033, 48.667 71.667 C 49.033 71.300, 49.033 70.700, 48.667 70.333 C 48.300 69.967, 48 70.267, 48 71 M 42.405 72.155 C 41.962 72.870, 42.130 73.038, 42.845 72.595 C 43.480 72.203, 44 71.684, 44 71.441 C 44 70.607, 43.117 71.002, 42.405 72.155 M 57.328 79.500 C 57.333 83.350, 57.513 84.802, 57.730 82.728 C 57.946 80.653, 57.943 77.503, 57.722 75.728 C 57.501 73.952, 57.324 75.650, 57.328 79.500 M 40.405 87.155 C 39.962 87.870, 40.130 88.038, 40.845 87.595 C 41.998 86.883, 42.393 86, 41.559 86 C 41.316 86, 40.797 86.520, 40.405 87.155 M 34.079 91.583 C 34.127 92.748, 34.364 92.985, 34.683 92.188 C 34.972 91.466, 34.936 90.603, 34.604 90.271 C 34.272 89.939, 34.036 90.529, 34.079 91.583 M 37.405 91.155 C 36.962 91.870, 37.130 92.038, 37.845 91.595 C 38.480 91.203, 39 90.684, 39 90.441 C 39 89.607, 38.117 90.002, 37.405 91.155 M 25.500 98 C 25.840 98.550, 26.343 99, 26.618 99 C 26.893 99, 26.840 98.550, 26.500 98 C 26.160 97.450, 25.657 97, 25.382 97 C 25.107 97, 25.160 97.450, 25.500 98 M 102.405 98.155 C 101.962 98.870, 102.130 99.038, 102.845 98.595 C 103.480 98.203, 104 97.684, 104 97.441 C 104 96.607, 103.117 97.002, 102.405 98.155 M 30.500 103 C 30.840 103.550, 31.343 104, 31.618 104 C 31.893 104, 31.840 103.550, 31.500 103 C 31.160 102.450, 30.657 102, 30.382 102 C 30.107 102, 30.160 102.450, 30.500 103 M 97.405 103.155 C 96.962 103.870, 97.130 104.038, 97.845 103.595 C 98.998 102.883, 99.393 102, 98.559 102 C 98.316 102, 97.797 102.520, 97.405 103.155" stroke="none" fill="#c40404" fill-rule="evenodd"/></svg>